<svg width="500" height="500" version="1.1" xmlns="http://www.w3.org/2000/svg" desc="Created with imagetracer.js version 1.2.6" ><path fill="rgb(17,17,17)" stroke="rgb(17,17,17)" stroke-width="1" opacity="1" d="M 139.5 78 L 162.5 78 L 163.5 79 L 165 78.5 L 165 142.5 L 163.5 144 L 148.5 144 L 148 144.5 L 148 213 L 163.5 213 L 165 214.5 L 164.5 279 L 162.5 279 L 148.5 279 L 148 279.5 L 148 414 L 114.5 414 L 113 412.5 L 113 408.5 L 114 405.5 L 113 400.5 L 114 397.5 L 113 392.5 L 114 389.5 L 113 384.5 L 114 381.5 L 113 376.5 L 114 373.5 L 113 368.5 L 114 365.5 L 113 360.5 L 114 357.5 L 113 352.5 L 114 349.5 L 113 344.5 L 114 341.5 L 113 336.5 L 114 333.5 L 113 328.5 L 114 325.5 L 113 320.5 L 114 317.5 L 113 312.5 L 114 309.5 L 113 304.5 L 114 301.5 L 113 296.5 L 114 293.5 L 113 288.5 L 114 285.5 L 113 280.5 L 114 277.5 L 113 272.5 L 114 269.5 L 113 264.5 L 114 261.5 L 113 256.5 L 114 253.5 L 113 248.5 L 114 245.5 L 113 240.5 L 114 237.5 L 113 232.5 L 114 229.5 L 113 224.5 L 114 221.5 L 113 216.5 L 114 213.5 L 113 208.5 L 114 205.5 L 113 200.5 L 114 197.5 L 113 192.5 L 114 189.5 L 113 184.5 L 114 181.5 L 113 176.5 L 114 173.5 L 113 168.5 L 114 165.5 L 113 160.5 L 114 157.5 L 113 152.5 L 114 149.5 L 113 144.5 L 114 141.5 L 113 136.5 L 114 133.5 L 113 128.5 L 114 125.5 L 113 120.5 L 114 117.5 L 113 112.5 L 114 109.5 L 113 104.5 L 114 101.5 L 113 96.5 L 114 93.5 L 113 88.5 L 114.5 87 Q 124.9 80.4 139.5 78 Z " /><path fill="rgb(17,17,17)" stroke="rgb(17,17,17)" stroke-width="1" opacity="1" d="M 100.5 98 L 99.5 100 L 100.5 98 Z " /><path fill="rgb(37,37,37)" stroke="rgb(37,37,37)" stroke-width="1" opacity="1" d="M 163.5 78 L 165.5 78 L 246.5 78 L 249 80.5 L 246 81.5 L 248.5 85 Q 247.3 82.8 246 85.5 L 248.5 89 Q 247.3 86.8 246 89.5 L 248.5 93 Q 247.3 90.8 246 93.5 L 248.5 97 Q 247.3 94.8 246 97.5 L 248.5 101 Q 247.3 98.8 246 101.5 L 248.5 105 Q 247.3 102.8 246 105.5 L 248.5 109 Q 247.3 106.8 246 109.5 L 248.5 113 Q 247.3 110.8 246 113.5 L 248.5 117 Q 247.3 114.8 246 117.5 L 248.5 121 Q 247.3 118.8 246 121.5 L 248.5 125 Q 247.3 122.7 246 125.5 L 248.5 129 Q 247.3 126.8 246 129.5 L 248.5 133 Q 247.3 130.8 246 133.5 L 248.5 137 Q 247.3 134.8 246 137.5 L 248.5 141 Q 247.3 138.8 246 141.5 L 247.5 144 L 164.5 144 L 163 142.5 L 163.5 78 Z " /><path fill="rgb(37,37,37)" stroke="rgb(37,37,37)" stroke-width="1" opacity="1" d="M 105.5 93 L 104.5 95 L 105.5 93 Z " /><path fill="rgb(37,37,37)" stroke="rgb(37,37,37)" stroke-width="1" opacity="1" d="M 164.5 213 L 245.5 213 L 249 216.5 L 246 217.5 L 248.5 221 Q 247.3 218.8 246 221.5 L 248.5 225 Q 247.3 222.7 246 225.5 L 248.5 229 Q 247.3 226.8 246 229.5 L 248.5 233 Q 247.3 230.8 246 233.5 L 248.5 237 Q 247.3 234.8 246 237.5 L 248.5 241 Q 247.3 238.8 246 241.5 L 248.5 245 Q 247.3 242.7 246 245.5 L 248.5 249 Q 247.3 246.8 246 249.5 L 248.5 253 Q 247.3 250.7 246 253.5 L 248.5 257 Q 247.3 254.8 246 257.5 L 248.5 261 Q 247.3 258.8 246 261.5 L 248.5 265 Q 247.3 262.8 246 265.5 L 248.5 269 Q 247.3 266.8 246 269.5 L 248.5 273 Q 247.3 270.7 246 273.5 L 248.5 277 Q 247.3 274.8 246 277.5 L 246.5 279 L 165.5 279 L 164.5 278 L 163 278.5 L 163 214.5 L 164.5 213 Z " /><path fill="rgb(63,63,63)" stroke="rgb(63,63,63)" stroke-width="1" opacity="1" d="M 247.5 78 L 345 78.5 L 344 79.5 L 346.5 83 Q 345.3 80.8 344 83.5 L 346 85.5 L 344 87.5 L 346.5 91 Q 345.3 88.8 344 91.5 L 346 93.5 L 344 95.5 L 346.5 99 Q 345.3 96.8 344 99.5 L 346 101.5 L 344 103.5 L 346.5 107 Q 345.3 104.8 344 107.5 L 346 109.5 L 344 111.5 L 346.5 115 Q 345.3 112.8 344 115.5 L 346 117.5 L 344 119.5 L 346.5 123 Q 345.3 120.7 344 123.5 L 346 125.5 L 344 127.5 L 346.5 131 Q 345.3 128.8 344 131.5 L 346 133.5 L 344 135.5 L 346.5 139 Q 345.3 136.8 344 139.5 Q 348.3 141.8 343.5 144 L 248.5 144 L 246 141.5 L 248 139.5 L 246 137.5 L 248 135.5 L 246 133.5 L 248 131.5 L 246 129.5 L 248 127.5 L 246 125.5 L 248 123.5 L 246 121.5 L 248 119.5 L 246 117.5 L 248 115.5 L 246 113.5 L 248 111.5 L 246 109.5 L 248 107.5 L 246 105.5 L 248 103.5 L 246 101.5 L 248 99.5 L 246 97.5 L 248 95.5 L 246 93.5 L 248 91.5 L 246 89.5 L 248 87.5 L 246 85.5 L 248 83.5 L 246 81.5 Q 249.1 79.8 247.5 78 Z " /><path fill="rgb(63,63,63)" stroke="rgb(63,63,63)" stroke-width="1" opacity="1" d="M 246.5 213 L 346 213.5 L 344 215.5 L 346.5 219 Q 345.3 216.8 344 219.5 L 346 221.5 L 344 223.5 L 346.5 227 Q 345.3 224.8 344 227.5 L 346 229.5 L 344 231.5 L 346.5 235 Q 345.3 232.8 344 235.5 L 346 237.5 L 344 239.5 L 346.5 243 Q 345.3 240.8 344 243.5 L 346 245.5 L 344 247.5 L 346.5 251 Q 345.3 248.7 344 251.5 L 346 253.5 L 344 255.5 L 346.5 259 Q 345.3 256.8 344 259.5 L 346 261.5 L 344 263.5 L 346.5 267 Q 345.3 264.8 344 267.5 L 346 269.5 L 344 271.5 L 346.5 275 Q 345.3 272.8 344 275.5 Q 347.8 277.3 344.5 279 L 247.5 279 L 246 277.5 L 248 275.5 L 246 273.5 L 248 271.5 L 246 269.5 L 248 267.5 L 246 265.5 L 248 263.5 L 246 261.5 L 248 259.5 L 246 257.5 L 248 255.5 L 246 253.5 L 248 251.5 L 246 249.5 L 248 247.5 L 246 245.5 L 248 243.5 L 246 241.5 L 248 239.5 L 246 237.5 L 248 235.5 L 246 233.5 L 248 231.5 L 246 229.5 L 248 227.5 L 246 225.5 L 248 223.5 L 246 221.5 L 248 219.5 L 246 217.5 L 248 215.5 L 246.5 213 Z " /><path fill="rgb(91,91,91)" stroke="rgb(91,91,91)" stroke-width="1" opacity="1" d="M 142.5 77 L 417.5 77 L 419 78.5 L 419 143.5 L 417.5 145 L 149.5 145 L 149 145.5 L 149 212 L 417.5 212 L 419 213.5 L 419 279 L 345.5 279 L 344.5 276 L 343 276.5 L 346 273.5 L 344.5 272 L 343 272.5 L 346 269.5 L 344.5 268 L 343 268.5 L 346 265.5 L 344.5 264 L 343 264.5 L 346 261.5 L 344.5 260 L 343 260.5 L 346 257.5 L 344.5 256 L 343 256.5 L 346 253.5 L 344.5 252 L 343 252.5 L 346 249.5 L 344.5 248 L 343 248.5 L 346 245.5 L 344.5 244 L 343 244.5 L 346 241.5 L 344.5 240 L 343 240.5 L 346 237.5 L 344.5 236 L 343 236.5 L 346 233.5 L 344.5 232 L 343 232.5 L 346 229.5 L 344.5 228 L 343 228.5 L 346 225.5 L 344.5 224 L 343 224.5 L 346 221.5 L 344.5 220 L 343 220.5 L 346 217.5 L 344.5 216 L 343 216.5 L 345.5 213 L 149.5 213 L 148 211.5 L 148 145.5 L 149.5 144 L 343.5 144 L 346 141.5 L 343 140.5 L 346 137.5 L 344.5 136 L 343 136.5 L 346 133.5 L 344.5 132 L 343 132.5 L 346 129.5 L 344.5 128 L 343 128.5 L 346 125.5 L 344.5 124 L 343 124.5 L 346 121.5 L 344.5 120 L 343 120.5 L 346 117.5 L 344.5 116 L 343 116.5 L 346 113.5 L 344.5 112 L 343 112.5 L 346 109.5 L 344.5 108 L 343 108.5 L 346 105.5 L 344.5 104 L 343 104.5 L 346 101.5 L 344.5 100 L 343 100.5 L 346 97.5 L 344.5 96 L 343 96.5 L 346 93.5 L 344.5 92 L 343 92.5 L 346 89.5 L 344.5 88 L 343 88.5 L 346 85.5 L 344.5 84 L 343 84.5 L 346 81.5 L 344.5 80 L 343 80.5 L 344.5 78 L 142.5 78 L 142.5 77 Z " /><path fill="rgb(91,91,91)" stroke="rgb(91,91,91)" stroke-width="1" opacity="1" d="M 96.5 102 L 95.5 104 L 96.5 102 Z " /><path fill="rgb(91,91,91)" stroke="rgb(91,91,91)" stroke-width="1" opacity="1" d="M 81.5 138 L 82 414 L 148 414 L 148 280.5 L 149.5 279 L 210.5 279 L 210.5 280 L 149 280 L 149 413.5 L 147.5 415 L 82.5 415 L 81 413.5 L 81.5 138 Z " /><path fill="rgb(8,8,8)" stroke="rgb(8,8,8)" stroke-width="1" opacity="1" d="M 98.5 102 L 99 412.5 L 97.5 414 L 82.5 414 L 82 413.5 L 82 135.5 Q 85.6 115.4 96 103 L 98.5 102 Z " /><path fill="rgb(199,199,199)" stroke="rgb(199,199,199)" stroke-width="1" opacity="1" d="M 109.5 89 L 108.5 91 L 109.5 89 Z " /><path fill="rgb(199,199,199)" stroke="rgb(199,199,199)" stroke-width="1" opacity="1" d="M 104.5 93 L 98.5 100 L 104.5 93 Z " /><path fill="rgb(199,199,199)" stroke="rgb(199,199,199)" stroke-width="1" opacity="1" d="M 211.5 279 L 419 279.5 L 211.5 280 L 211.5 279 Z " /><path fill="rgb(250,250,250)" stroke="rgb(250,250,250)" stroke-width="1" opacity="1" d="M 0 0 L 500 0 L 500 500 L 0 500 L 0 0 Z M 141 77 L 125 81 Q 113 85 105 93 Q 86 108 81 137 L 81 415 L 149 415 L 149 280 L 419 280 L 419 213 L 419 212 L 149 212 L 149 146 L 150 145 L 419 145 L 419 78 L 419 77 L 141 77 Z " /><path fill="rgb(10,10,10)" stroke="rgb(10,10,10)" stroke-width="1" opacity="1" d="M 112.5 88 L 115 90.5 L 113 92.5 L 114.5 95 L 113 94.5 L 115 98.5 L 113 100.5 L 114.5 103 L 113 102.5 L 115 106.5 L 113 108.5 L 114.5 111 L 113 110.5 L 115 114.5 L 113 116.5 L 114.5 119 L 113 118.5 L 115 122.5 L 113 124.5 L 114.5 127 L 113 126.5 L 115 130.5 L 113 132.5 L 114.5 135 L 113 134.5 L 115 138.5 L 113 140.5 L 114.5 143 L 113 142.5 L 115 146.5 L 113 148.5 L 114.5 151 L 113 150.5 L 115 154.5 L 113 156.5 L 114.5 159 L 113 158.5 L 115 162.5 L 113 164.5 L 114.5 167 L 113 166.5 L 115 170.5 L 113 172.5 L 114.5 175 L 113 174.5 L 115 178.5 L 113 180.5 L 114.5 183 L 113 182.5 L 115 186.5 L 113 188.5 L 114.5 191 L 113 190.5 L 115 194.5 L 113 196.5 L 114.5 199 L 113 198.5 L 115 202.5 L 113 204.5 L 114.5 207 L 113 206.5 L 115 210.5 L 113 212.5 L 114.5 215 L 113 214.5 L 115 218.5 L 113 220.5 L 114.5 223 L 113 222.5 L 115 226.5 L 113 228.5 L 114.5 231 L 113 230.5 L 115 234.5 L 113 236.5 L 114.5 239 L 113 238.5 L 115 242.5 L 113 244.5 L 114.5 247 L 113 246.5 L 115 250.5 L 113 252.5 L 114.5 255 L 113 254.5 L 115 258.5 L 113 260.5 L 114.5 263 L 113 262.5 L 115 266.5 L 113 268.5 L 114.5 271 L 113 270.5 L 115 274.5 L 113 276.5 L 114.5 279 L 113 278.5 L 115 282.5 L 113 284.5 L 114.5 287 L 113 286.5 L 115 290.5 L 113 292.5 L 114.5 295 L 113 294.5 L 115 298.5 L 113 300.5 L 114.5 303 L 113 302.5 L 115 306.5 L 113 308.5 L 114.5 311 L 113 310.5 L 115 314.5 L 113 316.5 L 114.5 319 L 113 318.5 L 115 322.5 L 113 324.5 L 114.5 327 L 113 326.5 L 115 330.5 L 113 332.5 L 114.5 335 L 113 334.5 L 115 338.5 L 113 340.5 L 114.5 343 L 113 342.5 L 115 346.5 L 113 348.5 L 114.5 351 L 113 350.5 L 115 354.5 L 113 356.5 L 114.5 359 L 113 358.5 L 115 362.5 L 113 364.5 L 114.5 367 L 113 366.5 L 115 370.5 L 113 372.5 L 114.5 375 L 113 374.5 L 115 378.5 L 113 380.5 L 114.5 383 L 113 382.5 L 115 386.5 L 113 388.5 L 114.5 391 L 113 390.5 L 115 394.5 L 113 396.5 L 114.5 399 L 113 398.5 L 115 402.5 L 113 404.5 L 114.5 407 L 113 406.5 L 115 410.5 Q 111.9 412.3 113.5 414 L 98 413.5 Q 100.5 412 97 410.5 L 99 408.5 L 97 406.5 L 99 404.5 L 97 402.5 L 99 400.5 L 97 398.5 L 99 396.5 L 97 394.5 L 99 392.5 L 97 390.5 L 99 388.5 L 97 386.5 L 99 384.5 L 97 382.5 L 99 380.5 L 97 378.5 L 99 376.5 L 97 374.5 L 99 372.5 L 97 370.5 L 99 368.5 L 97 366.5 L 99 364.5 L 97 362.5 L 99 360.5 L 97 358.5 L 99 356.5 L 97 354.5 L 99 352.5 L 97 350.5 L 99 348.5 L 97 346.5 L 99 344.5 L 97 342.5 L 99 340.5 L 97 338.5 L 99 336.5 L 97 334.5 L 99 332.5 L 97 330.5 L 99 328.5 L 97 326.5 L 99 324.5 L 97 322.5 L 99 320.5 L 97 318.5 L 99 316.5 L 97 314.5 L 99 312.5 L 97 310.5 L 99 308.5 L 97 306.5 L 99 304.5 L 97 302.5 L 99 300.5 L 97 298.5 L 99 296.5 L 97 294.5 L 99 292.5 L 97 290.5 L 99 288.5 L 97 286.5 L 99 284.5 L 97 282.5 L 99 280.5 L 97 278.5 L 99 276.5 L 97 274.5 L 99 272.5 L 97 270.5 L 99 268.5 L 97 266.5 L 99 264.5 L 97 262.5 L 99 260.5 L 97 258.5 L 99 256.5 L 97 254.5 L 99 252.5 L 97 250.5 L 99 248.5 L 97 246.5 L 99 244.5 L 97 242.5 L 99 240.5 L 97 238.5 L 99 236.5 L 97 234.5 L 99 232.5 L 97 230.5 L 99 228.5 L 97 226.5 L 99 224.5 L 97 222.5 L 99 220.5 L 97 218.5 L 99 216.5 L 97 214.5 L 99 212.5 L 97 210.5 L 99 208.5 L 97 206.5 L 99 204.5 L 97 202.5 L 99 200.5 L 97 198.5 L 99 196.5 L 97 194.5 L 99 192.5 L 97 190.5 L 99 188.5 L 97 186.5 L 99 184.5 L 97 182.5 L 99 180.5 L 97 178.5 L 99 176.5 L 97 174.5 L 99 172.5 L 97 170.5 L 99 168.5 L 97 166.5 L 99 164.5 L 97 162.5 L 99 160.5 L 97 158.5 L 99 156.5 L 97 154.5 L 99 152.5 L 97 150.5 L 99 148.5 L 97 146.5 L 99 144.5 L 97 142.5 L 99 140.5 L 97 138.5 L 99 136.5 L 97 134.5 L 99 132.5 L 97 130.5 L 99 128.5 L 97 126.5 L 99 124.5 L 97 122.5 L 99 120.5 L 97 118.5 L 99 116.5 L 97 114.5 L 99 112.5 L 97 110.5 L 99 108.5 L 97 106.5 L 99 104.5 L 97 102.5 L 101 98.5 L 102.5 96 L 112.5 88 Z " /></svg>