<svg version="1.1" xmlns="http://www.w3.org/2000/svg" viewBox="0 0 500 500" preserveAspectRatio="xMidYMid meet" xmlns:xlink="http://www.w3.org/1999/xlink" xmlns:svgjs="http://svgjs.dev/svgjs">
<path d="M0 0 C165 0 330 0 500 0 C500 165 500 330 500 500 C335 500 170 500 0 500 C0 335 0 170 0 0 Z " fill="#F9F9F9" transform="translate(0,0)" class=""></path>
<path d="M0 0 C7.26 0 14.52 0 22 0 C22.822 4.108 23.34 7.984 23.719 12.145 C23.782 12.832 23.844 13.519 23.909 14.228 C24.041 15.684 24.172 17.141 24.302 18.597 C24.496 20.768 24.695 22.938 24.895 25.107 C25.663 33.572 26.281 42.031 26.736 50.518 C26.98 53.733 27.414 56.832 28 60 C30.05 47.436 31.063 34.802 32.125 22.125 C32.308 19.973 32.492 17.82 32.676 15.668 C33.122 10.446 33.561 5.223 34 0 C41.26 0 48.52 0 56 0 C57.65 20.13 59.3 40.26 61 61 C62.538 57.923 62.441 54.616 62.684 51.23 C62.743 50.446 62.803 49.661 62.865 48.852 C62.993 47.169 63.119 45.486 63.244 43.803 C63.565 39.463 63.9 35.124 64.234 30.785 C64.3 29.935 64.365 29.084 64.432 28.208 C65.161 18.792 66.06 9.397 67 0 C74.26 0 81.52 0 89 0 C89.307 8.182 88.734 15.842 87.648 23.938 C86.008 36.604 84.694 49.291 83.438 62 C80.98 86.765 80.98 86.765 79.449 98.367 C78.888 102.902 78.455 107.453 78 112 C68.76 112 59.52 112 50 112 C48.242 96.341 46.52 80.684 45 65 C43.495 75.627 42.339 86.25 41.375 96.938 C41.24 98.411 41.104 99.884 40.969 101.357 C40.642 104.905 40.321 108.452 40 112 C30.76 112 21.52 112 12 112 C9.343 91.537 7.116 71.038 4.928 50.521 C4.41 45.661 3.888 40.801 3.365 35.942 C2.959 32.171 2.556 28.4 2.153 24.628 C1.961 22.834 1.768 21.04 1.575 19.246 C1.308 16.759 1.043 14.272 0.779 11.784 C0.699 11.051 0.62 10.317 0.538 9.562 C0.199 6.343 0 3.243 0 0 Z " fill="#020202" transform="translate(382,131)"></path>
<path d="M0 0 C5.776 4.625 8.255 9.496 10.02 16.617 C10.204 19.058 10.295 21.507 10.31 23.954 C10.317 24.651 10.323 25.348 10.33 26.066 C10.349 28.35 10.353 30.634 10.355 32.918 C10.362 34.521 10.369 36.123 10.376 37.726 C10.388 41.079 10.391 44.432 10.39 47.785 C10.39 52.058 10.417 56.331 10.452 60.605 C10.474 63.914 10.478 67.223 10.477 70.532 C10.479 72.106 10.488 73.68 10.504 75.255 C10.597 85.714 9.668 93.929 3.895 102.93 C-2.974 109.35 -9.753 111.358 -19.073 111.209 C-27.069 110.777 -32.991 108.092 -38.418 102.242 C-43.618 95.486 -45.092 88.372 -45.142 79.966 C-45.147 79.318 -45.152 78.67 -45.157 78.003 C-45.171 75.87 -45.178 73.738 -45.184 71.605 C-45.186 70.872 -45.189 70.139 -45.192 69.384 C-45.207 65.501 -45.216 61.619 -45.221 57.737 C-45.226 53.75 -45.25 49.764 -45.279 45.778 C-45.297 42.692 -45.303 39.606 -45.304 36.52 C-45.307 35.051 -45.315 33.583 -45.328 32.115 C-45.424 20.624 -45.005 10.848 -36.746 2.242 C-27.856 -5.94 -10.167 -6.131 0 0 Z " fill="#010101" transform="translate(141.98046875,133.3828125)"></path>
<path d="M0 0 C5.774 6.095 8.361 12.837 8.427 21.135 C8.437 22.16 8.437 22.16 8.447 23.205 C8.467 25.469 8.478 27.732 8.488 29.996 C8.492 30.773 8.496 31.549 8.501 32.349 C8.521 36.468 8.536 40.586 8.545 44.704 C8.556 48.93 8.591 53.156 8.63 57.382 C8.657 60.653 8.665 63.925 8.668 67.196 C8.673 68.752 8.685 70.308 8.703 71.864 C8.823 82.453 8.059 92.071 2.438 101.375 C-4.726 107.924 -12.872 109.876 -22.43 109.68 C-29.391 109.041 -34.731 106.862 -39.625 101.812 C-46.944 92.132 -47.376 81.679 -47.352 69.973 C-47.359 68.403 -47.368 66.833 -47.378 65.263 C-47.392 61.99 -47.392 58.716 -47.381 55.443 C-47.37 51.279 -47.404 47.117 -47.45 42.954 C-47.48 39.716 -47.481 36.48 -47.475 33.242 C-47.476 31.709 -47.486 30.175 -47.507 28.642 C-47.621 18.855 -46.68 10.602 -40.75 2.375 C-29.727 -7.422 -12.421 -7.34 0 0 Z " fill="#010101" transform="translate(353.75,134.625)"></path>
<path d="M0 0 C7.26 0 14.52 0 22 0 C22.025 2.686 22.05 5.371 22.076 8.138 C22.159 16.995 22.248 25.852 22.339 34.709 C22.395 40.081 22.448 45.452 22.497 50.824 C22.545 56.005 22.597 61.185 22.653 66.366 C22.673 68.346 22.692 70.326 22.709 72.306 C22.733 75.072 22.763 77.837 22.795 80.603 C22.803 81.841 22.803 81.841 22.812 83.103 C22.768 87.184 22.768 87.184 24 91 C25.98 91 27.96 91 30 91 C32.206 86.563 32.306 82.391 32.319 77.538 C32.334 76.279 32.334 76.279 32.349 74.994 C32.38 72.229 32.397 69.464 32.414 66.699 C32.433 64.778 32.452 62.857 32.473 60.936 C32.524 55.888 32.564 50.839 32.601 45.79 C32.641 40.636 32.692 35.481 32.742 30.326 C32.839 20.218 32.922 10.109 33 0 C39.93 0 46.86 0 54 0 C54.091 11.805 54.164 23.61 54.207 35.416 C54.228 40.899 54.256 46.381 54.302 51.864 C54.345 57.161 54.369 62.458 54.38 67.756 C54.387 69.77 54.401 71.785 54.423 73.799 C54.667 97.4 54.667 97.4 47.5 106 C46.675 106.66 45.85 107.32 45 108 C44.381 108.557 43.762 109.114 43.125 109.688 C35.976 114.103 27.078 113.819 19 113 C11.567 110.76 6.94 106.867 2.931 100.231 C-1.566 91.063 -0.497 80.844 -0.391 70.898 C-0.383 68.85 -0.377 66.802 -0.373 64.753 C-0.358 59.391 -0.319 54.028 -0.275 48.666 C-0.234 43.182 -0.215 37.698 -0.195 32.215 C-0.153 21.476 -0.082 10.738 0 0 Z " fill="#010101" transform="translate(192,267)"></path>
<path d="M0 0 C38 0 38 0 46 4 C47.988 6.008 47.988 6.008 49.312 8.125 C49.762 8.808 50.212 9.491 50.676 10.195 C54.232 17.728 55.534 24.963 55.438 33.25 C55.431 34.16 55.424 35.069 55.417 36.006 C55.207 44.916 54.114 54.284 48.688 61.688 C40.167 69.019 33.681 67 22 67 C22 81.85 22 96.7 22 112 C14.74 112 7.48 112 0 112 C0 75.04 0 38.08 0 0 Z " fill="#020202" transform="translate(262,267)"></path>
<path d="M0 0 C14.52 0 29.04 0 44 0 C44 7.26 44 14.52 44 22 C36.74 22 29.48 22 22 22 C22 27.61 22 33.22 22 39 C28.93 39 35.86 39 43 39 C43 46.26 43 53.52 43 61 C36.07 61 29.14 61 22 61 C22 77.83 22 94.66 22 112 C14.74 112 7.48 112 0 112 C0 75.04 0 38.08 0 0 Z " fill="#010101" transform="translate(32,131)"></path>
<path d="M0 0 C7.26 0 14.52 0 22 0 C22 30.69 22 61.38 22 93 C29.59 93 37.18 93 45 93 C45 99.27 45 105.54 45 112 C30.15 112 15.3 112 0 112 C0 75.04 0 38.08 0 0 Z " fill="#000000" transform="translate(242,131)"></path>
<path d="M0 0 C7.26 0 14.52 0 22 0 C22 30.69 22 61.38 22 93 C29.59 93 37.18 93 45 93 C45 99.27 45 105.54 45 112 C30.15 112 15.3 112 0 112 C0 75.04 0 38.08 0 0 Z " fill="#000000" transform="translate(176,131)"></path>
<path d="M0 0 C142.89 0 285.78 0 433 0 C433 1.32 433 2.64 433 4 C290.11 4 147.22 4 0 4 C0 2.68 0 1.36 0 0 Z " fill="#000000" transform="translate(36,257)"></path>
<path d="M0 0 C2.375 0.312 2.375 0.312 5 1 C7.363 4.545 7.253 6.042 7.259 10.244 C7.265 11.532 7.271 12.82 7.278 14.148 C7.274 15.555 7.27 16.963 7.266 18.371 C7.267 19.815 7.269 21.258 7.271 22.701 C7.274 25.727 7.27 28.752 7.261 31.778 C7.249 35.653 7.256 39.527 7.268 43.402 C7.275 46.383 7.273 49.364 7.268 52.345 C7.266 53.774 7.268 55.203 7.273 56.631 C7.278 58.63 7.269 60.628 7.259 62.627 C7.256 64.332 7.256 64.332 7.254 66.072 C7.006 68.925 6.484 70.584 5 73 C2.188 73.312 2.188 73.312 -1 73 C-3.923 69.284 -4.381 66.381 -4.404 61.729 C-4.417 60.484 -4.429 59.239 -4.442 57.956 C-4.44 56.606 -4.437 55.256 -4.434 53.906 C-4.438 52.513 -4.443 51.12 -4.449 49.726 C-4.458 46.811 -4.456 43.896 -4.446 40.981 C-4.435 37.252 -4.455 33.523 -4.484 29.794 C-4.502 26.918 -4.502 24.043 -4.496 21.167 C-4.496 19.792 -4.502 18.418 -4.515 17.043 C-4.53 15.119 -4.516 13.195 -4.502 11.271 C-4.502 10.178 -4.501 9.085 -4.501 7.959 C-3.889 4.345 -2.471 2.646 0 0 Z " fill="#EFEFEF" transform="translate(123,150)"></path>
<path d="M0 0 C2.375 1 2.375 1 3.507 2.683 C4.597 5.592 4.629 7.959 4.634 11.066 C4.64 12.291 4.646 13.516 4.653 14.778 C4.649 16.098 4.645 17.418 4.641 18.777 C4.642 20.15 4.644 21.522 4.646 22.894 C4.649 25.768 4.645 28.642 4.636 31.516 C4.624 35.193 4.631 38.869 4.643 42.545 C4.65 45.379 4.648 48.212 4.643 51.046 C4.641 53.058 4.647 55.071 4.653 57.083 C4.647 58.311 4.64 59.539 4.634 60.804 C4.631 62.422 4.631 62.422 4.629 64.072 C4.345 67.342 3.78 70.595 1.375 73 C-1 73.375 -1 73.375 -3.625 73 C-6.541 69.219 -7.006 66.327 -7.029 61.621 C-7.042 60.353 -7.054 59.085 -7.067 57.778 C-7.065 56.403 -7.062 55.028 -7.059 53.652 C-7.063 52.234 -7.068 50.816 -7.074 49.398 C-7.083 46.431 -7.081 43.465 -7.071 40.499 C-7.06 36.7 -7.08 32.902 -7.109 29.103 C-7.127 26.177 -7.127 23.251 -7.121 20.324 C-7.121 18.924 -7.127 17.523 -7.14 16.123 C-7.155 14.165 -7.141 12.207 -7.127 10.25 C-7.127 9.137 -7.126 8.024 -7.126 6.877 C-6.383 2.613 -4.492 0 0 0 Z " fill="#EFEFEF" transform="translate(335.625,150)"></path>
<path d="M0 0 C6 0 6 0 8.312 1.812 C12.157 6.797 11.449 12.995 11 19 C10.29 21.723 9.425 23.534 8 26 C6 27 6 27 0 27 C0 18.09 0 9.18 0 0 Z " fill="#E9E9E9" transform="translate(284,287)"></path>
<path d="M0 0 C-0.33 4.29 -0.66 8.58 -1 13 C-1.33 13 -1.66 13 -2 13 C-2.33 9.04 -2.66 5.08 -3 1 C-1 0 -1 0 0 0 Z " fill="#C4C4C4" transform="translate(445,185)"></path>
</svg>